<svg class="rich-terminal" viewBox="0 0 1482 1026.0" xmlns="http://www.w3.org/2000/svg">
    <!-- Generated with Rich https://www.textualize.io -->
    <style>

    @font-face {
        font-family: "Fira Code";
        src: local("FiraCode-Regular"),
                url("https://cdnjs.cloudflare.com/ajax/libs/firacode/6.2.0/woff2/FiraCode-Regular.woff2") format("woff2"),
                url("https://cdnjs.cloudflare.com/ajax/libs/firacode/6.2.0/woff/FiraCode-Regular.woff") format("woff");
        font-style: normal;
        font-weight: 400;
    }
    @font-face {
        font-family: "Fira Code";
        src: local("FiraCode-Bold"),
                url("https://cdnjs.cloudflare.com/ajax/libs/firacode/6.2.0/woff2/FiraCode-Bold.woff2") format("woff2"),
                url("https://cdnjs.cloudflare.com/ajax/libs/firacode/6.2.0/woff/FiraCode-Bold.woff") format("woff");
        font-style: bold;
        font-weight: 700;
    }

    .terminal-2447157856-matrix {
        font-family: Fira Code, monospace;
        font-size: 20px;
        line-height: 24.4px;
        font-variant-east-asian: full-width;
    }

    .terminal-2447157856-title {
        font-size: 18px;
        font-weight: bold;
        font-family: arial;
    }

    .terminal-2447157856-r1 { fill: #c5c8c6 }
.terminal-2447157856-r2 { fill: #e0e0e0 }
.terminal-2447157856-r3 { fill: #a0a3a6 }
.terminal-2447157856-r4 { fill: #c5c6c7 }
.terminal-2447157856-r5 { fill: #7f7f7f }
.terminal-2447157856-r6 { fill: #ddedf9;font-weight: bold }
.terminal-2447157856-r7 { fill: #585858 }
.terminal-2447157856-r8 { fill: #0178d4 }
.terminal-2447157856-r9 { fill: #e0e0e0;font-weight: bold }
.terminal-2447157856-r10 { fill: #9aa6b0 }
.terminal-2447157856-r11 { fill: #9e9e9e }
.terminal-2447157856-r12 { fill: #58d1eb }
.terminal-2447157856-r13 { fill: #9b9b9b }
.terminal-2447157856-r14 { fill: #fd971f }
.terminal-2447157856-r15 { fill: #f4005f;font-weight: bold }
.terminal-2447157856-r16 { fill: #ffa62b;font-weight: bold }
.terminal-2447157856-r17 { fill: #495259 }
    </style>

    <defs>
    <clipPath id="terminal-2447157856-clip-terminal">
      <rect x="0" y="0" width="1463.0" height="975.0" />
    </clipPath>
    <clipPath id="terminal-2447157856-line-0">
    <rect x="0" y="1.5" width="1464" height="24.65"/>
            </clipPath>
<clipPath id="terminal-2447157856-line-1">
    <rect x="0" y="25.9" width="1464" height="24.65"/>
            </clipPath>
<clipPath id="terminal-2447157856-line-2">
    <rect x="0" y="50.3" width="1464" height="24.65"/>
            </clipPath>
<clipPath id="terminal-2447157856-line-3">
    <rect x="0" y="74.7" width="1464" height="24.65"/>
            </clipPath>
<clipPath id="terminal-2447157856-line-4">
    <rect x="0" y="99.1" width="1464" height="24.65"/>
            </clipPath>
<clipPath id="terminal-2447157856-line-5">
    <rect x="0" y="123.5" width="1464" height="24.65"/>
            </clipPath>
<clipPath id="terminal-2447157856-line-6">
    <rect x="0" y="147.9" width="1464" height="24.65"/>
            </clipPath>
<clipPath id="terminal-2447157856-line-7">
    <rect x="0" y="172.3" width="1464" height="24.65"/>
            </clipPath>
<clipPath id="terminal-2447157856-line-8">
    <rect x="0" y="196.7" width="1464" height="24.65"/>
            </clipPath>
<clipPath id="terminal-2447157856-line-9">
    <rect x="0" y="221.1" width="1464" height="24.65"/>
            </clipPath>
<clipPath id="terminal-2447157856-line-10">
    <rect x="0" y="245.5" width="1464" height="24.65"/>
            </clipPath>
<clipPath id="terminal-2447157856-line-11">
    <rect x="0" y="269.9" width="1464" height="24.65"/>
            </clipPath>
<clipPath id="terminal-2447157856-line-12">
    <rect x="0" y="294.3" width="1464" height="24.65"/>
            </clipPath>
<clipPath id="terminal-2447157856-line-13">
    <rect x="0" y="318.7" width="1464" height="24.65"/>
            </clipPath>
<clipPath id="terminal-2447157856-line-14">
    <rect x="0" y="343.1" width="1464" height="24.65"/>
            </clipPath>
<clipPath id="terminal-2447157856-line-15">
    <rect x="0" y="367.5" width="1464" height="24.65"/>
            </clipPath>
<clipPath id="terminal-2447157856-line-16">
    <rect x="0" y="391.9" width="1464" height="24.65"/>
            </clipPath>
<clipPath id="terminal-2447157856-line-17">
    <rect x="0" y="416.3" width="1464" height="24.65"/>
            </clipPath>
<clipPath id="terminal-2447157856-line-18">
    <rect x="0" y="440.7" width="1464" height="24.65"/>
            </clipPath>
<clipPath id="terminal-2447157856-line-19">
    <rect x="0" y="465.1" width="1464" height="24.65"/>
            </clipPath>
<clipPath id="terminal-2447157856-line-20">
    <rect x="0" y="489.5" width="1464" height="24.65"/>
            </clipPath>
<clipPath id="terminal-2447157856-line-21">
    <rect x="0" y="513.9" width="1464" height="24.65"/>
            </clipPath>
<clipPath id="terminal-2447157856-line-22">
    <rect x="0" y="538.3" width="1464" height="24.65"/>
            </clipPath>
<clipPath id="terminal-2447157856-line-23">
    <rect x="0" y="562.7" width="1464" height="24.65"/>
            </clipPath>
<clipPath id="terminal-2447157856-line-24">
    <rect x="0" y="587.1" width="1464" height="24.65"/>
            </clipPath>
<clipPath id="terminal-2447157856-line-25">
    <rect x="0" y="611.5" width="1464" height="24.65"/>
            </clipPath>
<clipPath id="terminal-2447157856-line-26">
    <rect x="0" y="635.9" width="1464" height="24.65"/>
            </clipPath>
<clipPath id="terminal-2447157856-line-27">
    <rect x="0" y="660.3" width="1464" height="24.65"/>
            </clipPath>
<clipPath id="terminal-2447157856-line-28">
    <rect x="0" y="684.7" width="1464" height="24.65"/>
            </clipPath>
<clipPath id="terminal-2447157856-line-29">
    <rect x="0" y="709.1" width="1464" height="24.65"/>
            </clipPath>
<clipPath id="terminal-2447157856-line-30">
    <rect x="0" y="733.5" width="1464" height="24.65"/>
            </clipPath>
<clipPath id="terminal-2447157856-line-31">
    <rect x="0" y="757.9" width="1464" height="24.65"/>
            </clipPath>
<clipPath id="terminal-2447157856-line-32">
    <rect x="0" y="782.3" width="1464" height="24.65"/>
            </clipPath>
<clipPath id="terminal-2447157856-line-33">
    <rect x="0" y="806.7" width="1464" height="24.65"/>
            </clipPath>
<clipPath id="terminal-2447157856-line-34">
    <rect x="0" y="831.1" width="1464" height="24.65"/>
            </clipPath>
<clipPath id="terminal-2447157856-line-35">
    <rect x="0" y="855.5" width="1464" height="24.65"/>
            </clipPath>
<clipPath id="terminal-2447157856-line-36">
    <rect x="0" y="879.9" width="1464" height="24.65"/>
            </clipPath>
<clipPath id="terminal-2447157856-line-37">
    <rect x="0" y="904.3" width="1464" height="24.65"/>
            </clipPath>
<clipPath id="terminal-2447157856-line-38">
    <rect x="0" y="928.7" width="1464" height="24.65"/>
            </clipPath>
    </defs>

    <rect fill="#292929" stroke="rgba(255,255,255,0.35)" stroke-width="1" x="1" y="1" width="1480" height="1024" rx="8"/><text class="terminal-2447157856-title" fill="#c5c8c6" text-anchor="middle" x="740" y="27">pymfx&#160;&#160;·&#160;&#160;demo_flight.mfx</text>
            <g transform="translate(26,22)">
            <circle cx="0" cy="0" r="7" fill="#ff5f57"/>
            <circle cx="22" cy="0" r="7" fill="#febc2e"/>
            <circle cx="44" cy="0" r="7" fill="#28c840"/>
            </g>
        
    <g transform="translate(9, 41)" clip-path="url(#terminal-2447157856-clip-terminal)">
    <rect fill="#242f38" x="0" y="1.5" width="12.2" height="24.65" shape-rendering="crispEdges"/><rect fill="#242f38" x="12.2" y="1.5" width="12.2" height="24.65" shape-rendering="crispEdges"/><rect fill="#242f38" x="24.4" y="1.5" width="61" height="24.65" shape-rendering="crispEdges"/><rect fill="#242f38" x="85.4" y="1.5" width="12.2" height="24.65" shape-rendering="crispEdges"/><rect fill="#242f38" x="97.6" y="1.5" width="305" height="24.65" shape-rendering="crispEdges"/><rect fill="#242f38" x="402.6" y="1.5" width="305" height="24.65" shape-rendering="crispEdges"/><rect fill="#242f38" x="707.6" y="1.5" width="36.6" height="24.65" shape-rendering="crispEdges"/><rect fill="#242f38" x="744.2" y="1.5" width="292.8" height="24.65" shape-rendering="crispEdges"/><rect fill="#242f38" x="1037" y="1.5" width="305" height="24.65" shape-rendering="crispEdges"/><rect fill="#2c363f" x="1342" y="1.5" width="12.2" height="24.65" shape-rendering="crispEdges"/><rect fill="#2c363f" x="1354.2" y="1.5" width="97.6" height="24.65" shape-rendering="crispEdges"/><rect fill="#2c363f" x="1451.8" y="1.5" width="12.2" height="24.65" shape-rendering="crispEdges"/><rect fill="#1e1e1e" x="0" y="25.9" width="12.2" height="24.65" shape-rendering="crispEdges"/><rect fill="#1e1e1e" x="12.2" y="25.9" width="146.4" height="24.65" shape-rendering="crispEdges"/><rect fill="#1e1e1e" x="158.6" y="25.9" width="12.2" height="24.65" shape-rendering="crispEdges"/><rect fill="#1e1e1e" x="170.8" y="25.9" width="12.2" height="24.65" shape-rendering="crispEdges"/><rect fill="#1e1e1e" x="183" y="25.9" width="170.8" height="24.65" shape-rendering="crispEdges"/><rect fill="#1e1e1e" x="353.8" y="25.9" width="12.2" height="24.65" shape-rendering="crispEdges"/><rect fill="#0178d4" x="366" y="25.9" width="12.2" height="24.65" shape-rendering="crispEdges"/><rect fill="#0178d4" x="378.2" y="25.9" width="122" height="24.65" shape-rendering="crispEdges"/><rect fill="#0178d4" x="500.2" y="25.9" width="12.2" height="24.65" shape-rendering="crispEdges"/><rect fill="#1e1e1e" x="512.4" y="25.9" width="12.2" height="24.65" shape-rendering="crispEdges"/><rect fill="#1e1e1e" x="524.6" y="25.9" width="146.4" height="24.65" shape-rendering="crispEdges"/><rect fill="#1e1e1e" x="671" y="25.9" width="12.2" height="24.65" shape-rendering="crispEdges"/><rect fill="#1e1e1e" x="683.2" y="25.9" width="780.8" height="24.65" shape-rendering="crispEdges"/><rect fill="#1e1e1e" x="0" y="50.3" width="366" height="24.65" shape-rendering="crispEdges"/><rect fill="#1e1e1e" x="366" y="50.3" width="12.2" height="24.65" shape-rendering="crispEdges"/><rect fill="#1e1e1e" x="378.2" y="50.3" width="122" height="24.65" shape-rendering="crispEdges"/><rect fill="#1e1e1e" x="500.2" y="50.3" width="12.2" height="24.65" shape-rendering="crispEdges"/><rect fill="#1e1e1e" x="512.4" y="50.3" width="951.6" height="24.65" shape-rendering="crispEdges"/><rect fill="#1e1e1e" x="0" y="74.7" width="1464" height="24.65" shape-rendering="crispEdges"/><rect fill="#1e1e1e" x="0" y="99.1" width="12.2" height="24.65" shape-rendering="crispEdges"/><rect fill="#242f38" x="12.2" y="99.1" width="109.8" height="24.65" shape-rendering="crispEdges"/><rect fill="#242f38" x="122" y="99.1" width="122" height="24.65" shape-rendering="crispEdges"/><rect fill="#242f38" x="244" y="99.1" width="122" height="24.65" shape-rendering="crispEdges"/><rect fill="#242f38" x="366" y="99.1" width="170.8" height="24.65" shape-rendering="crispEdges"/><rect fill="#242f38" x="536.8" y="99.1" width="915" height="24.65" shape-rendering="crispEdges"/><rect fill="#1e1e1e" x="1451.8" y="99.1" width="12.2" height="24.65" shape-rendering="crispEdges"/><rect fill="#1e1e1e" x="0" y="123.5" width="12.2" height="24.65" shape-rendering="crispEdges"/><rect fill="#153854" x="12.2" y="123.5" width="12.2" height="24.65" shape-rendering="crispEdges"/><rect fill="#153854" x="24.4" y="123.5" width="61" height="24.65" shape-rendering="crispEdges"/><rect fill="#153854" x="85.4" y="123.5" width="36.6" height="24.65" shape-rendering="crispEdges"/><rect fill="#153854" x="122" y="123.5" width="12.2" height="24.65" shape-rendering="crispEdges"/><rect fill="#153854" x="134.2" y="123.5" width="85.4" height="24.65" shape-rendering="crispEdges"/><rect fill="#153854" x="219.6" y="123.5" width="24.4" height="24.65" shape-rendering="crispEdges"/><rect fill="#153854" x="244" y="123.5" width="12.2" height="24.65" shape-rendering="crispEdges"/><rect fill="#153854" x="256.2" y="123.5" width="48.8" height="24.65" shape-rendering="crispEdges"/><rect fill="#153854" x="305" y="123.5" width="61" height="24.65" shape-rendering="crispEdges"/><rect fill="#153854" x="366" y="123.5" width="170.8" height="24.65" shape-rendering="crispEdges"/><rect fill="#153854" x="536.8" y="123.5" width="915" height="24.65" shape-rendering="crispEdges"/><rect fill="#1e1e1e" x="1451.8" y="123.5" width="12.2" height="24.65" shape-rendering="crispEdges"/><rect fill="#1e1e1e" x="0" y="147.9" width="12.2" height="24.65" shape-rendering="crispEdges"/><rect fill="#1e1e1e" x="12.2" y="147.9" width="12.2" height="24.65" shape-rendering="crispEdges"/><rect fill="#1e1e1e" x="24.4" y="147.9" width="73.2" height="24.65" shape-rendering="crispEdges"/><rect fill="#1e1e1e" x="97.6" y="147.9" width="24.4" height="24.65" shape-rendering="crispEdges"/><rect fill="#1e1e1e" x="122" y="147.9" width="12.2" height="24.65" shape-rendering="crispEdges"/><rect fill="#1e1e1e" x="134.2" y="147.9" width="97.6" height="24.65" shape-rendering="crispEdges"/><rect fill="#1e1e1e" x="231.8" y="147.9" width="12.2" height="24.65" shape-rendering="crispEdges"/><rect fill="#1e1e1e" x="244" y="147.9" width="12.2" height="24.65" shape-rendering="crispEdges"/><rect fill="#1e1e1e" x="256.2" y="147.9" width="48.8" height="24.65" shape-rendering="crispEdges"/><rect fill="#1e1e1e" x="305" y="147.9" width="61" height="24.65" shape-rendering="crispEdges"/><rect fill="#1e1e1e" x="366" y="147.9" width="170.8" height="24.65" shape-rendering="crispEdges"/><rect fill="#1e1e1e" x="536.8" y="147.9" width="915" height="24.65" shape-rendering="crispEdges"/><rect fill="#1e1e1e" x="1451.8" y="147.9" width="12.2" height="24.65" shape-rendering="crispEdges"/><rect fill="#1e1e1e" x="0" y="172.3" width="12.2" height="24.65" shape-rendering="crispEdges"/><rect fill="#171717" x="12.2" y="172.3" width="12.2" height="24.65" shape-rendering="crispEdges"/><rect fill="#171717" x="24.4" y="172.3" width="85.4" height="24.65" shape-rendering="crispEdges"/><rect fill="#171717" x="109.8" y="172.3" width="12.2" height="24.65" shape-rendering="crispEdges"/><rect fill="#171717" x="122" y="172.3" width="12.2" height="24.65" shape-rendering="crispEdges"/><rect fill="#171717" x="134.2" y="172.3" width="61" height="24.65" shape-rendering="crispEdges"/><rect fill="#171717" x="195.2" y="172.3" width="48.8" height="24.65" shape-rendering="crispEdges"/><rect fill="#171717" x="244" y="172.3" width="12.2" height="24.65" shape-rendering="crispEdges"/><rect fill="#171717" x="256.2" y="172.3" width="48.8" height="24.65" shape-rendering="crispEdges"/><rect fill="#171717" x="305" y="172.3" width="61" height="24.65" shape-rendering="crispEdges"/><rect fill="#171717" x="366" y="172.3" width="170.8" height="24.65" shape-rendering="crispEdges"/><rect fill="#171717" x="536.8" y="172.3" width="915" height="24.65" shape-rendering="crispEdges"/><rect fill="#1e1e1e" x="1451.8" y="172.3" width="12.2" height="24.65" shape-rendering="crispEdges"/><rect fill="#1e1e1e" x="0" y="196.7" width="12.2" height="24.65" shape-rendering="crispEdges"/><rect fill="#1e1e1e" x="12.2" y="196.7" width="12.2" height="24.65" shape-rendering="crispEdges"/><rect fill="#1e1e1e" x="24.4" y="196.7" width="85.4" height="24.65" shape-rendering="crispEdges"/><rect fill="#1e1e1e" x="109.8" y="196.7" width="12.2" height="24.65" shape-rendering="crispEdges"/><rect fill="#1e1e1e" x="122" y="196.7" width="12.2" height="24.65" shape-rendering="crispEdges"/><rect fill="#1e1e1e" x="134.2" y="196.7" width="61" height="24.65" shape-rendering="crispEdges"/><rect fill="#1e1e1e" x="195.2" y="196.7" width="48.8" height="24.65" shape-rendering="crispEdges"/><rect fill="#1e1e1e" x="244" y="196.7" width="12.2" height="24.65" shape-rendering="crispEdges"/><rect fill="#1e1e1e" x="256.2" y="196.7" width="48.8" height="24.65" shape-rendering="crispEdges"/><rect fill="#1e1e1e" x="305" y="196.7" width="61" height="24.65" shape-rendering="crispEdges"/><rect fill="#1e1e1e" x="366" y="196.7" width="170.8" height="24.65" shape-rendering="crispEdges"/><rect fill="#1e1e1e" x="536.8" y="196.7" width="915" height="24.65" shape-rendering="crispEdges"/><rect fill="#1e1e1e" x="1451.8" y="196.7" width="12.2" height="24.65" shape-rendering="crispEdges"/><rect fill="#1e1e1e" x="0" y="221.1" width="12.2" height="24.65" shape-rendering="crispEdges"/><rect fill="#171717" x="12.2" y="221.1" width="12.2" height="24.65" shape-rendering="crispEdges"/><rect fill="#171717" x="24.4" y="221.1" width="85.4" height="24.65" shape-rendering="crispEdges"/><rect fill="#171717" x="109.8" y="221.1" width="12.2" height="24.65" shape-rendering="crispEdges"/><rect fill="#171717" x="122" y="221.1" width="12.2" height="24.65" shape-rendering="crispEdges"/><rect fill="#171717" x="134.2" y="221.1" width="61" height="24.65" shape-rendering="crispEdges"/><rect fill="#171717" x="195.2" y="221.1" width="48.8" height="24.65" shape-rendering="crispEdges"/><rect fill="#171717" x="244" y="221.1" width="12.2" height="24.65" shape-rendering="crispEdges"/><rect fill="#171717" x="256.2" y="221.1" width="48.8" height="24.65" shape-rendering="crispEdges"/><rect fill="#171717" x="305" y="221.1" width="61" height="24.65" shape-rendering="crispEdges"/><rect fill="#171717" x="366" y="221.1" width="170.8" height="24.65" shape-rendering="crispEdges"/><rect fill="#171717" x="536.8" y="221.1" width="915" height="24.65" shape-rendering="crispEdges"/><rect fill="#1e1e1e" x="1451.8" y="221.1" width="12.2" height="24.65" shape-rendering="crispEdges"/><rect fill="#1e1e1e" x="0" y="245.5" width="12.2" height="24.65" shape-rendering="crispEdges"/><rect fill="#1e1e1e" x="12.2" y="245.5" width="12.2" height="24.65" shape-rendering="crispEdges"/><rect fill="#1e1e1e" x="24.4" y="245.5" width="85.4" height="24.65" shape-rendering="crispEdges"/><rect fill="#1e1e1e" x="109.8" y="245.5" width="12.2" height="24.65" shape-rendering="crispEdges"/><rect fill="#1e1e1e" x="122" y="245.5" width="12.2" height="24.65" shape-rendering="crispEdges"/><rect fill="#1e1e1e" x="134.2" y="245.5" width="97.6" height="24.65" shape-rendering="crispEdges"/><rect fill="#1e1e1e" x="231.8" y="245.5" width="12.2" height="24.65" shape-rendering="crispEdges"/><rect fill="#1e1e1e" x="244" y="245.5" width="12.2" height="24.65" shape-rendering="crispEdges"/><rect fill="#1e1e1e" x="256.2" y="245.5" width="48.8" height="24.65" shape-rendering="crispEdges"/><rect fill="#1e1e1e" x="305" y="245.5" width="61" height="24.65" shape-rendering="crispEdges"/><rect fill="#1e1e1e" x="366" y="245.5" width="170.8" height="24.65" shape-rendering="crispEdges"/><rect fill="#1e1e1e" x="536.8" y="245.5" width="915" height="24.65" shape-rendering="crispEdges"/><rect fill="#1e1e1e" x="1451.8" y="245.5" width="12.2" height="24.65" shape-rendering="crispEdges"/><rect fill="#1e1e1e" x="0" y="269.9" width="12.2" height="24.65" shape-rendering="crispEdges"/><rect fill="#171717" x="12.2" y="269.9" width="12.2" height="24.65" shape-rendering="crispEdges"/><rect fill="#171717" x="24.4" y="269.9" width="85.4" height="24.65" shape-rendering="crispEdges"/><rect fill="#171717" x="109.8" y="269.9" width="12.2" height="24.65" shape-rendering="crispEdges"/><rect fill="#171717" x="122" y="269.9" width="12.2" height="24.65" shape-rendering="crispEdges"/><rect fill="#171717" x="134.2" y="269.9" width="85.4" height="24.65" shape-rendering="crispEdges"/><rect fill="#171717" x="219.6" y="269.9" width="24.4" height="24.65" shape-rendering="crispEdges"/><rect fill="#171717" x="244" y="269.9" width="12.2" height="24.65" shape-rendering="crispEdges"/><rect fill="#171717" x="256.2" y="269.9" width="48.8" height="24.65" shape-rendering="crispEdges"/><rect fill="#171717" x="305" y="269.9" width="61" height="24.65" shape-rendering="crispEdges"/><rect fill="#171717" x="366" y="269.9" width="170.8" height="24.65" shape-rendering="crispEdges"/><rect fill="#171717" x="536.8" y="269.9" width="915" height="24.65" shape-rendering="crispEdges"/><rect fill="#1e1e1e" x="1451.8" y="269.9" width="12.2" height="24.65" shape-rendering="crispEdges"/><rect fill="#1e1e1e" x="0" y="294.3" width="12.2" height="24.65" shape-rendering="crispEdges"/><rect fill="#1e1e1e" x="12.2" y="294.3" width="1439.6" height="24.65" shape-rendering="crispEdges"/><rect fill="#1e1e1e" x="1451.8" y="294.3" width="12.2" height="24.65" shape-rendering="crispEdges"/><rect fill="#1e1e1e" x="0" y="318.7" width="12.2" height="24.65" shape-rendering="crispEdges"/><rect fill="#1e1e1e" x="12.2" y="318.7" width="1439.6" height="24.65" shape-rendering="crispEdges"/><rect fill="#1e1e1e" x="1451.8" y="318.7" width="12.2" height="24.65" shape-rendering="crispEdges"/><rect fill="#1e1e1e" x="0" y="343.1" width="12.2" height="24.65" shape-rendering="crispEdges"/><rect fill="#1e1e1e" x="12.2" y="343.1" width="1439.6" height="24.65" shape-rendering="crispEdges"/><rect fill="#1e1e1e" x="1451.8" y="343.1" width="12.2" height="24.65" shape-rendering="crispEdges"/><rect fill="#1e1e1e" x="0" y="367.5" width="12.2" height="24.65" shape-rendering="crispEdges"/><rect fill="#1e1e1e" x="12.2" y="367.5" width="1439.6" height="24.65" shape-rendering="crispEdges"/><rect fill="#1e1e1e" x="1451.8" y="367.5" width="12.2" height="24.65" shape-rendering="crispEdges"/><rect fill="#1e1e1e" x="0" y="391.9" width="12.2" height="24.65" shape-rendering="crispEdges"/><rect fill="#1e1e1e" x="12.2" y="391.9" width="1439.6" height="24.65" shape-rendering="crispEdges"/><rect fill="#1e1e1e" x="1451.8" y="391.9" width="12.2" height="24.65" shape-rendering="crispEdges"/><rect fill="#1e1e1e" x="0" y="416.3" width="12.2" height="24.65" shape-rendering="crispEdges"/><rect fill="#1e1e1e" x="12.2" y="416.3" width="1439.6" height="24.65" shape-rendering="crispEdges"/><rect fill="#1e1e1e" x="1451.8" y="416.3" width="12.2" height="24.65" shape-rendering="crispEdges"/><rect fill="#1e1e1e" x="0" y="440.7" width="12.2" height="24.65" shape-rendering="crispEdges"/><rect fill="#1e1e1e" x="12.2" y="440.7" width="1439.6" height="24.65" shape-rendering="crispEdges"/><rect fill="#1e1e1e" x="1451.8" y="440.7" width="12.2" height="24.65" shape-rendering="crispEdges"/><rect fill="#1e1e1e" x="0" y="465.1" width="12.2" height="24.65" shape-rendering="crispEdges"/><rect fill="#1e1e1e" x="12.2" y="465.1" width="1439.6" height="24.65" shape-rendering="crispEdges"/><rect fill="#1e1e1e" x="1451.8" y="465.1" width="12.2" height="24.65" shape-rendering="crispEdges"/><rect fill="#1e1e1e" x="0" y="489.5" width="12.2" height="24.65" shape-rendering="crispEdges"/><rect fill="#1e1e1e" x="12.2" y="489.5" width="1439.6" height="24.65" shape-rendering="crispEdges"/><rect fill="#1e1e1e" x="1451.8" y="489.5" width="12.2" height="24.65" shape-rendering="crispEdges"/><rect fill="#1e1e1e" x="0" y="513.9" width="12.2" height="24.65" shape-rendering="crispEdges"/><rect fill="#1e1e1e" x="12.2" y="513.9" width="1439.6" height="24.65" shape-rendering="crispEdges"/><rect fill="#1e1e1e" x="1451.8" y="513.9" width="12.2" height="24.65" shape-rendering="crispEdges"/><rect fill="#1e1e1e" x="0" y="538.3" width="12.2" height="24.65" shape-rendering="crispEdges"/><rect fill="#1e1e1e" x="12.2" y="538.3" width="1439.6" height="24.65" shape-rendering="crispEdges"/><rect fill="#1e1e1e" x="1451.8" y="538.3" width="12.2" height="24.65" shape-rendering="crispEdges"/><rect fill="#1e1e1e" x="0" y="562.7" width="12.2" height="24.65" shape-rendering="crispEdges"/><rect fill="#1e1e1e" x="12.2" y="562.7" width="1439.6" height="24.65" shape-rendering="crispEdges"/><rect fill="#1e1e1e" x="1451.8" y="562.7" width="12.2" height="24.65" shape-rendering="crispEdges"/><rect fill="#1e1e1e" x="0" y="587.1" width="12.2" height="24.65" shape-rendering="crispEdges"/><rect fill="#1e1e1e" x="12.2" y="587.1" width="1439.6" height="24.65" shape-rendering="crispEdges"/><rect fill="#1e1e1e" x="1451.8" y="587.1" width="12.2" height="24.65" shape-rendering="crispEdges"/><rect fill="#1e1e1e" x="0" y="611.5" width="12.2" height="24.65" shape-rendering="crispEdges"/><rect fill="#1e1e1e" x="12.2" y="611.5" width="1439.6" height="24.65" shape-rendering="crispEdges"/><rect fill="#1e1e1e" x="1451.8" y="611.5" width="12.2" height="24.65" shape-rendering="crispEdges"/><rect fill="#1e1e1e" x="0" y="635.9" width="12.2" height="24.65" shape-rendering="crispEdges"/><rect fill="#1e1e1e" x="12.2" y="635.9" width="1439.6" height="24.65" shape-rendering="crispEdges"/><rect fill="#1e1e1e" x="1451.8" y="635.9" width="12.2" height="24.65" shape-rendering="crispEdges"/><rect fill="#1e1e1e" x="0" y="660.3" width="12.2" height="24.65" shape-rendering="crispEdges"/><rect fill="#1e1e1e" x="12.2" y="660.3" width="1439.6" height="24.65" shape-rendering="crispEdges"/><rect fill="#1e1e1e" x="1451.8" y="660.3" width="12.2" height="24.65" shape-rendering="crispEdges"/><rect fill="#1e1e1e" x="0" y="684.7" width="12.2" height="24.65" shape-rendering="crispEdges"/><rect fill="#1e1e1e" x="12.2" y="684.7" width="1439.6" height="24.65" shape-rendering="crispEdges"/><rect fill="#1e1e1e" x="1451.8" y="684.7" width="12.2" height="24.65" shape-rendering="crispEdges"/><rect fill="#1e1e1e" x="0" y="709.1" width="12.2" height="24.65" shape-rendering="crispEdges"/><rect fill="#1e1e1e" x="12.2" y="709.1" width="1439.6" height="24.65" shape-rendering="crispEdges"/><rect fill="#1e1e1e" x="1451.8" y="709.1" width="12.2" height="24.65" shape-rendering="crispEdges"/><rect fill="#1e1e1e" x="0" y="733.5" width="12.2" height="24.65" shape-rendering="crispEdges"/><rect fill="#1e1e1e" x="12.2" y="733.5" width="1439.6" height="24.65" shape-rendering="crispEdges"/><rect fill="#1e1e1e" x="1451.8" y="733.5" width="12.2" height="24.65" shape-rendering="crispEdges"/><rect fill="#1e1e1e" x="0" y="757.9" width="12.2" height="24.65" shape-rendering="crispEdges"/><rect fill="#1e1e1e" x="12.2" y="757.9" width="1439.6" height="24.65" shape-rendering="crispEdges"/><rect fill="#1e1e1e" x="1451.8" y="757.9" width="12.2" height="24.65" shape-rendering="crispEdges"/><rect fill="#1e1e1e" x="0" y="782.3" width="12.2" height="24.65" shape-rendering="crispEdges"/><rect fill="#1e1e1e" x="12.2" y="782.3" width="1439.6" height="24.65" shape-rendering="crispEdges"/><rect fill="#1e1e1e" x="1451.8" y="782.3" width="12.2" height="24.65" shape-rendering="crispEdges"/><rect fill="#1e1e1e" x="0" y="806.7" width="12.2" height="24.65" shape-rendering="crispEdges"/><rect fill="#1e1e1e" x="12.2" y="806.7" width="1439.6" height="24.65" shape-rendering="crispEdges"/><rect fill="#1e1e1e" x="1451.8" y="806.7" width="12.2" height="24.65" shape-rendering="crispEdges"/><rect fill="#1e1e1e" x="0" y="831.1" width="12.2" height="24.65" shape-rendering="crispEdges"/><rect fill="#1e1e1e" x="12.2" y="831.1" width="1439.6" height="24.65" shape-rendering="crispEdges"/><rect fill="#1e1e1e" x="1451.8" y="831.1" width="12.2" height="24.65" shape-rendering="crispEdges"/><rect fill="#1e1e1e" x="0" y="855.5" width="12.2" height="24.65" shape-rendering="crispEdges"/><rect fill="#1e1e1e" x="12.2" y="855.5" width="1439.6" height="24.65" shape-rendering="crispEdges"/><rect fill="#1e1e1e" x="1451.8" y="855.5" width="12.2" height="24.65" shape-rendering="crispEdges"/><rect fill="#1e1e1e" x="0" y="879.9" width="12.2" height="24.65" shape-rendering="crispEdges"/><rect fill="#1e1e1e" x="12.2" y="879.9" width="1439.6" height="24.65" shape-rendering="crispEdges"/><rect fill="#1e1e1e" x="1451.8" y="879.9" width="12.2" height="24.65" shape-rendering="crispEdges"/><rect fill="#1e1e1e" x="0" y="904.3" width="12.2" height="24.65" shape-rendering="crispEdges"/><rect fill="#1e1e1e" x="12.2" y="904.3" width="1439.6" height="24.65" shape-rendering="crispEdges"/><rect fill="#1e1e1e" x="1451.8" y="904.3" width="12.2" height="24.65" shape-rendering="crispEdges"/><rect fill="#1e1e1e" x="0" y="928.7" width="1464" height="24.65" shape-rendering="crispEdges"/><rect fill="#242f38" x="0" y="953.1" width="36.6" height="24.65" shape-rendering="crispEdges"/><rect fill="#242f38" x="36.6" y="953.1" width="61" height="24.65" shape-rendering="crispEdges"/><rect fill="#242f38" x="97.6" y="953.1" width="36.6" height="24.65" shape-rendering="crispEdges"/><rect fill="#242f38" x="134.2" y="953.1" width="109.8" height="24.65" shape-rendering="crispEdges"/><rect fill="#242f38" x="244" y="953.1" width="36.6" height="24.65" shape-rendering="crispEdges"/><rect fill="#242f38" x="280.6" y="953.1" width="134.2" height="24.65" shape-rendering="crispEdges"/><rect fill="#242f38" x="414.8" y="953.1" width="36.6" height="24.65" shape-rendering="crispEdges"/><rect fill="#242f38" x="451.4" y="953.1" width="85.4" height="24.65" shape-rendering="crispEdges"/><rect fill="#242f38" x="536.8" y="953.1" width="36.6" height="24.65" shape-rendering="crispEdges"/><rect fill="#242f38" x="573.4" y="953.1" width="48.8" height="24.65" shape-rendering="crispEdges"/><rect fill="#242f38" x="622.2" y="953.1" width="36.6" height="24.65" shape-rendering="crispEdges"/><rect fill="#242f38" x="658.8" y="953.1" width="85.4" height="24.65" shape-rendering="crispEdges"/><rect fill="#242f38" x="744.2" y="953.1" width="573.4" height="24.65" shape-rendering="crispEdges"/><rect fill="#242f38" x="1317.6" y="953.1" width="12.2" height="24.65" shape-rendering="crispEdges"/><rect fill="#242f38" x="1329.8" y="953.1" width="24.4" height="24.65" shape-rendering="crispEdges"/><rect fill="#242f38" x="1354.2" y="953.1" width="97.6" height="24.65" shape-rendering="crispEdges"/><rect fill="#242f38" x="1451.8" y="953.1" width="12.2" height="24.65" shape-rendering="crispEdges"/>
    <g class="terminal-2447157856-matrix">
    <text class="terminal-2447157856-r2" x="12.2" y="20" textLength="12.2" clip-path="url(#terminal-2447157856-line-0)">⭘</text><text class="terminal-2447157856-r2" x="402.6" y="20" textLength="305" clip-path="url(#terminal-2447157856-line-0)">pymfx&#160;&#160;·&#160;&#160;demo_flight.mfx</text><text class="terminal-2447157856-r3" x="707.6" y="20" textLength="36.6" clip-path="url(#terminal-2447157856-line-0)">&#160;—&#160;</text><text class="terminal-2447157856-r3" x="744.2" y="20" textLength="292.8" clip-path="url(#terminal-2447157856-line-0)">.mfx&#160;v1.0&#160;&#160;·&#160;&#160;320&#160;points</text><text class="terminal-2447157856-r4" x="1354.2" y="20" textLength="97.6" clip-path="url(#terminal-2447157856-line-0)">19:06:56</text><text class="terminal-2447157856-r1" x="1464" y="20" textLength="12.2" clip-path="url(#terminal-2447157856-line-0)">
</text><text class="terminal-2447157856-r5" x="12.2" y="44.4" textLength="146.4" clip-path="url(#terminal-2447157856-line-1)">Overview&#160;[1]</text><text class="terminal-2447157856-r5" x="183" y="44.4" textLength="170.8" clip-path="url(#terminal-2447157856-line-1)">Trajectory&#160;[2]</text><text class="terminal-2447157856-r6" x="378.2" y="44.4" textLength="122" clip-path="url(#terminal-2447157856-line-1)">Events&#160;[3]</text><text class="terminal-2447157856-r5" x="524.6" y="44.4" textLength="146.4" clip-path="url(#terminal-2447157856-line-1)">Raw&#160;.mfx&#160;[4]</text><text class="terminal-2447157856-r1" x="1464" y="44.4" textLength="12.2" clip-path="url(#terminal-2447157856-line-1)">
</text><text class="terminal-2447157856-r7" x="0" y="68.8" textLength="366" clip-path="url(#terminal-2447157856-line-2)">━━━━━━━━━━━━━━━━━━━━━━━━━━━━━━</text><text class="terminal-2447157856-r7" x="366" y="68.8" textLength="12.2" clip-path="url(#terminal-2447157856-line-2)">╸</text><text class="terminal-2447157856-r8" x="378.2" y="68.8" textLength="122" clip-path="url(#terminal-2447157856-line-2)">━━━━━━━━━━</text><text class="terminal-2447157856-r7" x="500.2" y="68.8" textLength="12.2" clip-path="url(#terminal-2447157856-line-2)">╺</text><text class="terminal-2447157856-r7" x="512.4" y="68.8" textLength="951.6" clip-path="url(#terminal-2447157856-line-2)">━━━━━━━━━━━━━━━━━━━━━━━━━━━━━━━━━━━━━━━━━━━━━━━━━━━━━━━━━━━━━━━━━━━━━━━━━━━━━━</text><text class="terminal-2447157856-r1" x="1464" y="68.8" textLength="12.2" clip-path="url(#terminal-2447157856-line-2)">
</text><text class="terminal-2447157856-r1" x="1464" y="93.2" textLength="12.2" clip-path="url(#terminal-2447157856-line-3)">
</text><text class="terminal-2447157856-r9" x="12.2" y="117.6" textLength="109.8" clip-path="url(#terminal-2447157856-line-4)">&#160;t&#160;&#160;&#160;&#160;&#160;&#160;&#160;</text><text class="terminal-2447157856-r9" x="122" y="117.6" textLength="122" clip-path="url(#terminal-2447157856-line-4)">&#160;type&#160;&#160;&#160;&#160;&#160;</text><text class="terminal-2447157856-r9" x="244" y="117.6" textLength="122" clip-path="url(#terminal-2447157856-line-4)">&#160;severity&#160;</text><text class="terminal-2447157856-r9" x="366" y="117.6" textLength="170.8" clip-path="url(#terminal-2447157856-line-4)">&#160;detail&#160;&#160;&#160;&#160;&#160;&#160;&#160;</text><text class="terminal-2447157856-r1" x="1464" y="117.6" textLength="12.2" clip-path="url(#terminal-2447157856-line-4)">
</text><text class="terminal-2447157856-r10" x="24.4" y="142" textLength="61" clip-path="url(#terminal-2447157856-line-5)">0.000</text><text class="terminal-2447157856-r9" x="134.2" y="142" textLength="85.4" clip-path="url(#terminal-2447157856-line-5)">takeoff</text><text class="terminal-2447157856-r10" x="256.2" y="142" textLength="48.8" clip-path="url(#terminal-2447157856-line-5)">info</text><text class="terminal-2447157856-r2" x="366" y="142" textLength="170.8" clip-path="url(#terminal-2447157856-line-5)">&#160;nominal&#160;&#160;&#160;&#160;&#160;&#160;</text><text class="terminal-2447157856-r1" x="1464" y="142" textLength="12.2" clip-path="url(#terminal-2447157856-line-5)">
</text><text class="terminal-2447157856-r11" x="24.4" y="166.4" textLength="73.2" clip-path="url(#terminal-2447157856-line-6)">22.000</text><text class="terminal-2447157856-r12" x="134.2" y="166.4" textLength="97.6" clip-path="url(#terminal-2447157856-line-6)">waypoint</text><text class="terminal-2447157856-r11" x="256.2" y="166.4" textLength="48.8" clip-path="url(#terminal-2447157856-line-6)">info</text><text class="terminal-2447157856-r2" x="366" y="166.4" textLength="170.8" clip-path="url(#terminal-2447157856-line-6)">&#160;start_survey&#160;</text><text class="terminal-2447157856-r1" x="1464" y="166.4" textLength="12.2" clip-path="url(#terminal-2447157856-line-6)">
</text><text class="terminal-2447157856-r13" x="24.4" y="190.8" textLength="85.4" clip-path="url(#terminal-2447157856-line-7)">120.000</text><text class="terminal-2447157856-r14" x="134.2" y="190.8" textLength="61" clip-path="url(#terminal-2447157856-line-7)">photo</text><text class="terminal-2447157856-r13" x="256.2" y="190.8" textLength="48.8" clip-path="url(#terminal-2447157856-line-7)">info</text><text class="terminal-2447157856-r2" x="366" y="190.8" textLength="170.8" clip-path="url(#terminal-2447157856-line-7)">&#160;rgb-capture&#160;&#160;</text><text class="terminal-2447157856-r1" x="1464" y="190.8" textLength="12.2" clip-path="url(#terminal-2447157856-line-7)">
</text><text class="terminal-2447157856-r11" x="24.4" y="215.2" textLength="85.4" clip-path="url(#terminal-2447157856-line-8)">180.000</text><text class="terminal-2447157856-r14" x="134.2" y="215.2" textLength="61" clip-path="url(#terminal-2447157856-line-8)">photo</text><text class="terminal-2447157856-r11" x="256.2" y="215.2" textLength="48.8" clip-path="url(#terminal-2447157856-line-8)">info</text><text class="terminal-2447157856-r2" x="366" y="215.2" textLength="170.8" clip-path="url(#terminal-2447157856-line-8)">&#160;rgb-capture&#160;&#160;</text><text class="terminal-2447157856-r1" x="1464" y="215.2" textLength="12.2" clip-path="url(#terminal-2447157856-line-8)">
</text><text class="terminal-2447157856-r13" x="24.4" y="239.6" textLength="85.4" clip-path="url(#terminal-2447157856-line-9)">240.000</text><text class="terminal-2447157856-r14" x="134.2" y="239.6" textLength="61" clip-path="url(#terminal-2447157856-line-9)">photo</text><text class="terminal-2447157856-r13" x="256.2" y="239.6" textLength="48.8" clip-path="url(#terminal-2447157856-line-9)">info</text><text class="terminal-2447157856-r2" x="366" y="239.6" textLength="170.8" clip-path="url(#terminal-2447157856-line-9)">&#160;rgb-capture&#160;&#160;</text><text class="terminal-2447157856-r1" x="1464" y="239.6" textLength="12.2" clip-path="url(#terminal-2447157856-line-9)">
</text><text class="terminal-2447157856-r11" x="24.4" y="264" textLength="85.4" clip-path="url(#terminal-2447157856-line-10)">298.000</text><text class="terminal-2447157856-r12" x="134.2" y="264" textLength="97.6" clip-path="url(#terminal-2447157856-line-10)">waypoint</text><text class="terminal-2447157856-r11" x="256.2" y="264" textLength="48.8" clip-path="url(#terminal-2447157856-line-10)">info</text><text class="terminal-2447157856-r2" x="366" y="264" textLength="170.8" clip-path="url(#terminal-2447157856-line-10)">&#160;end_survey&#160;&#160;&#160;</text><text class="terminal-2447157856-r1" x="1464" y="264" textLength="12.2" clip-path="url(#terminal-2447157856-line-10)">
</text><text class="terminal-2447157856-r13" x="24.4" y="288.4" textLength="85.4" clip-path="url(#terminal-2447157856-line-11)">319.000</text><text class="terminal-2447157856-r15" x="134.2" y="288.4" textLength="85.4" clip-path="url(#terminal-2447157856-line-11)">landing</text><text class="terminal-2447157856-r13" x="256.2" y="288.4" textLength="48.8" clip-path="url(#terminal-2447157856-line-11)">info</text><text class="terminal-2447157856-r2" x="366" y="288.4" textLength="170.8" clip-path="url(#terminal-2447157856-line-11)">&#160;nominal&#160;&#160;&#160;&#160;&#160;&#160;</text><text class="terminal-2447157856-r1" x="1464" y="288.4" textLength="12.2" clip-path="url(#terminal-2447157856-line-11)">
</text><text class="terminal-2447157856-r1" x="1464" y="312.8" textLength="12.2" clip-path="url(#terminal-2447157856-line-12)">
</text><text class="terminal-2447157856-r1" x="1464" y="337.2" textLength="12.2" clip-path="url(#terminal-2447157856-line-13)">
</text><text class="terminal-2447157856-r1" x="1464" y="361.6" textLength="12.2" clip-path="url(#terminal-2447157856-line-14)">
</text><text class="terminal-2447157856-r1" x="1464" y="386" textLength="12.2" clip-path="url(#terminal-2447157856-line-15)">
</text><text class="terminal-2447157856-r1" x="1464" y="410.4" textLength="12.2" clip-path="url(#terminal-2447157856-line-16)">
</text><text class="terminal-2447157856-r1" x="1464" y="434.8" textLength="12.2" clip-path="url(#terminal-2447157856-line-17)">
</text><text class="terminal-2447157856-r1" x="1464" y="459.2" textLength="12.2" clip-path="url(#terminal-2447157856-line-18)">
</text><text class="terminal-2447157856-r1" x="1464" y="483.6" textLength="12.2" clip-path="url(#terminal-2447157856-line-19)">
</text><text class="terminal-2447157856-r1" x="1464" y="508" textLength="12.2" clip-path="url(#terminal-2447157856-line-20)">
</text><text class="terminal-2447157856-r1" x="1464" y="532.4" textLength="12.2" clip-path="url(#terminal-2447157856-line-21)">
</text><text class="terminal-2447157856-r1" x="1464" y="556.8" textLength="12.2" clip-path="url(#terminal-2447157856-line-22)">
</text><text class="terminal-2447157856-r1" x="1464" y="581.2" textLength="12.2" clip-path="url(#terminal-2447157856-line-23)">
</text><text class="terminal-2447157856-r1" x="1464" y="605.6" textLength="12.2" clip-path="url(#terminal-2447157856-line-24)">
</text><text class="terminal-2447157856-r1" x="1464" y="630" textLength="12.2" clip-path="url(#terminal-2447157856-line-25)">
</text><text class="terminal-2447157856-r1" x="1464" y="654.4" textLength="12.2" clip-path="url(#terminal-2447157856-line-26)">
</text><text class="terminal-2447157856-r1" x="1464" y="678.8" textLength="12.2" clip-path="url(#terminal-2447157856-line-27)">
</text><text class="terminal-2447157856-r1" x="1464" y="703.2" textLength="12.2" clip-path="url(#terminal-2447157856-line-28)">
</text><text class="terminal-2447157856-r1" x="1464" y="727.6" textLength="12.2" clip-path="url(#terminal-2447157856-line-29)">
</text><text class="terminal-2447157856-r1" x="1464" y="752" textLength="12.2" clip-path="url(#terminal-2447157856-line-30)">
</text><text class="terminal-2447157856-r1" x="1464" y="776.4" textLength="12.2" clip-path="url(#terminal-2447157856-line-31)">
</text><text class="terminal-2447157856-r1" x="1464" y="800.8" textLength="12.2" clip-path="url(#terminal-2447157856-line-32)">
</text><text class="terminal-2447157856-r1" x="1464" y="825.2" textLength="12.2" clip-path="url(#terminal-2447157856-line-33)">
</text><text class="terminal-2447157856-r1" x="1464" y="849.6" textLength="12.2" clip-path="url(#terminal-2447157856-line-34)">
</text><text class="terminal-2447157856-r1" x="1464" y="874" textLength="12.2" clip-path="url(#terminal-2447157856-line-35)">
</text><text class="terminal-2447157856-r1" x="1464" y="898.4" textLength="12.2" clip-path="url(#terminal-2447157856-line-36)">
</text><text class="terminal-2447157856-r1" x="1464" y="922.8" textLength="12.2" clip-path="url(#terminal-2447157856-line-37)">
</text><text class="terminal-2447157856-r1" x="1464" y="947.2" textLength="12.2" clip-path="url(#terminal-2447157856-line-38)">
</text><text class="terminal-2447157856-r16" x="0" y="971.6" textLength="36.6" clip-path="url(#terminal-2447157856-line-39)">&#160;q&#160;</text><text class="terminal-2447157856-r2" x="36.6" y="971.6" textLength="61" clip-path="url(#terminal-2447157856-line-39)">Quit&#160;</text><text class="terminal-2447157856-r16" x="97.6" y="971.6" textLength="36.6" clip-path="url(#terminal-2447157856-line-39)">&#160;1&#160;</text><text class="terminal-2447157856-r2" x="134.2" y="971.6" textLength="109.8" clip-path="url(#terminal-2447157856-line-39)">Overview&#160;</text><text class="terminal-2447157856-r16" x="244" y="971.6" textLength="36.6" clip-path="url(#terminal-2447157856-line-39)">&#160;2&#160;</text><text class="terminal-2447157856-r2" x="280.6" y="971.6" textLength="134.2" clip-path="url(#terminal-2447157856-line-39)">Trajectory&#160;</text><text class="terminal-2447157856-r16" x="414.8" y="971.6" textLength="36.6" clip-path="url(#terminal-2447157856-line-39)">&#160;3&#160;</text><text class="terminal-2447157856-r2" x="451.4" y="971.6" textLength="85.4" clip-path="url(#terminal-2447157856-line-39)">Events&#160;</text><text class="terminal-2447157856-r16" x="536.8" y="971.6" textLength="36.6" clip-path="url(#terminal-2447157856-line-39)">&#160;4&#160;</text><text class="terminal-2447157856-r2" x="573.4" y="971.6" textLength="48.8" clip-path="url(#terminal-2447157856-line-39)">Raw&#160;</text><text class="terminal-2447157856-r16" x="622.2" y="971.6" textLength="36.6" clip-path="url(#terminal-2447157856-line-39)">&#160;e&#160;</text><text class="terminal-2447157856-r2" x="658.8" y="971.6" textLength="85.4" clip-path="url(#terminal-2447157856-line-39)">Export&#160;</text><text class="terminal-2447157856-r17" x="1317.6" y="971.6" textLength="12.2" clip-path="url(#terminal-2447157856-line-39)">▏</text><text class="terminal-2447157856-r16" x="1329.8" y="971.6" textLength="24.4" clip-path="url(#terminal-2447157856-line-39)">^p</text><text class="terminal-2447157856-r2" x="1354.2" y="971.6" textLength="97.6" clip-path="url(#terminal-2447157856-line-39)">&#160;palette</text>
    </g>
    </g>
</svg>
